<?xml version="1.0" encoding="UTF-8" standalone="no"?>
<!-- Created with Inkscape (http://www.inkscape.org/) -->

<svg
   width="297mm"
   height="210mm"
   viewBox="0 0 297 210"
   version="1.1"
   id="svg2254"
   inkscape:version="1.1 (c68e22c387, 2021-05-23)"
   sodipodi:docname="logo.svg"
   xmlns:inkscape="http://www.inkscape.org/namespaces/inkscape"
   xmlns:sodipodi="http://sodipodi.sourceforge.net/DTD/sodipodi-0.dtd"
   xmlns="http://www.w3.org/2000/svg"
   xmlns:svg="http://www.w3.org/2000/svg">
  <sodipodi:namedview
     id="namedview2256"
     pagecolor="#ffffff"
     bordercolor="#666666"
     borderopacity="1.0"
     inkscape:pageshadow="2"
     inkscape:pageopacity="0.0"
     inkscape:pagecheckerboard="0"
     inkscape:document-units="mm"
     showgrid="false"
     inkscape:snap-global="true"
     inkscape:zoom="0.85839035"
     inkscape:cx="392.01279"
     inkscape:cy="440.3591"
     inkscape:window-width="1920"
     inkscape:window-height="986"
     inkscape:window-x="-11"
     inkscape:window-y="-11"
     inkscape:window-maximized="1"
     inkscape:current-layer="layer1" />
  <defs
     id="defs2251" />
  <g
     inkscape:label="Layer 1"
     inkscape:groupmode="layer"
     id="layer1">
    <path
       id="path2280"
       style="fill:#649b91;fill-opacity:1"
       inkscape:transform-center-x="1.1148639e-06"
       inkscape:transform-center-y="-29.318292"
       d="m 536.85742,36.203125 -191.92773,332.427735 -150.07617,259.9375 41.85351,72.49023 150.07422,-259.9375 150.07617,-259.93945 150.07422,259.93945 67.97187,117.57475 h 83.70508 L 728.78516,368.63086 Z"
       transform="scale(0.26458333)"
       sodipodi:nodetypes="ccccccccccc" />
    <path
       id="path2585"
       style="fill:#59ebd1;stroke-width:0.264583;fill-opacity:1"
       inkscape:transform-center-x="-20.356222"
       inkscape:transform-center-y="-14.368924"
       d="M 254.67837,166.30881 203.89769,78.353859 164.1905,9.5784554 l -22.14698,2.88e-4 39.70744,68.7749556 39.70763,68.775661 -79.41502,-4.4e-4 -36.12922,1.5e-4 -11.073478,19.17984 58.275938,1e-5 z"
       sodipodi:nodetypes="ccccccccccc" />
    <path
       id="path2995"
       style="fill:#487069;stroke-width:0.264583;fill-opacity:1"
       inkscape:transform-center-x="8.6310725"
       inkscape:transform-center-y="-14.368929"
       d="m 62.62872,185.48842 101.56157,1.2e-4 79.41484,2.6e-4 11.07324,-19.17999 -79.41458,1.8e-4 -79.415289,-2e-5 L 135.55639,97.53376 153.43385,67.371121 142.04352,47.937642 113.40941,97.53347 Z"
       sodipodi:nodetypes="ccccccccccc" />
  </g>
</svg>
